PathFileType	4	(X/Y/Z)	29_1_17_p1_0-236.trc
DataRate	CameraRate	NumFrames	NumMarkers	Units	OrigDataRate	OrigDataStartFrame	OrigNumFrames
59.0	59.0	5	27	m	59.0	0	237
Frame#	Time	RHip			RKnee			RAnkle			RBigToe			RSmallToe			RHeel			LHip			LKnee			LAnkle			LBigToe			LSmallToe			LHeel			Neck			Head			Nose			RShoulder			RElbow			RWrist			RThumb			RIndex			RPinky			LShoulder			LElbow			LWrist			LThumb			LIndex			LPinky			
		X1	Y1	Z1	X2	Y2	Z2	X3	Y3	Z3	X4	Y4	Z4	X5	Y5	Z5	X6	Y6	Z6	X7	Y7	Z7	X8	Y8	Z8	X9	Y9	Z9	X10	Y10	Z10	X11	Y11	Z11	X12	Y12	Z12	X13	Y13	Z13	X14	Y14	Z14	X15	Y15	Z15	X16	Y16	Z16	X17	Y17	Z17	X18	Y18	Z18	X19	Y19	Z19	X20	Y20	Z20	X21	Y21	Z21	X22	Y22	Z22	X23	Y23	Z23	X24	Y24	Z24	X25	Y25	Z25	X26	Y26	Z26	X27	Y27	Z27	
0	0.0	0.347239641956316	0.5747172331071133	0.9057147602956005	0.32638841626105175	0.6894435101103598	1.32998448317472	0.3000887153544079	0.7934766685208695	1.749404698801332	0.2977331882677727	0.615120380769536	1.7693839552995754	0.350485156491598	0.6309724739126084	1.7671969167122314	0.2700538871194183	0.9015620855546402	1.8168875959527895	0.1339458579842364	0.585093908719586	0.9059894156338308	0.11467007504303056	0.6707802428219188	1.3034422508263244	0.09974064346430375	0.7824798778393361	1.7320302170933557	0.11842521231641417	0.5501120395373577	1.7252257045126869	0.06305668387123167	0.6182940311891391	1.7305381286859471	0.11620008158057543	0.8296163193880652	1.7699709600773283	0.27709091895133703	0.4914752743591148	0.3169790670116004	0.31376709057907376	0.3992565772298176	0.07255240281884145	0.28215480563850626	0.32693183426995576	0.20602328341443055	0.4195503657087175	0.4682097724960518	0.4298458233654689	0.4644089322408641	0.4293543300149744	0.6752321951514615	0.31686279832722997	0.3506098119069121	0.8465547837032866	0.22968766229851836	0.3778174526853582	0.9444627947917871	0.22626163319516468	0.4127481056305872	0.9676071431750319	0.23743376694734067	0.4144228288180279	0.9624836599008842	0.11016091232452863	0.4725677693970066	0.41632992034714617	0.07500280821982581	0.42726308398265517	0.6687010342411025	0.20683989126103108	0.3075690226034284	0.8235900339392628	0.31129099360721624	0.3164113991940624	0.8969328068241427	0.31197905447995	0.3160102680752918	0.9045448896172229	0.2344770939134301	0.33473574698657665	0.9417225371421689
1	0.01694915254237288	0.3431921155554107	0.5732411547185653	0.9091944983322198	0.3259210704049603	0.685996164753634	1.3288977055089635	0.301259398457505	0.7933273494654218	1.7402693761605408	0.29257850359789284	0.6299981631874321	1.7756717268799775	0.35083425867239015	0.6270245115310178	1.7569107511918713	0.27688513398370945	0.8831249045722845	1.7995377141930902	0.12863705473029094	0.5969892977824863	0.9151897358824587	0.11466432424234003	0.6708599609453388	1.3032434353380897	0.09886858751004407	0.7809784922547982	1.7222262678246536	0.12036360162423042	0.5638013245231444	1.7308219779557745	0.06288412820562189	0.6189084366815166	1.7306638485310328	0.11627594360431669	0.8307678261332901	1.7657284332537841	0.2771560531642633	0.4914916773289475	0.3171328081971428	0.313837417501896	0.39959305041195464	0.0729528542519153	0.27846998352448765	0.32505570297999437	0.20608082432373642	0.4224115399025643	0.4781267989473712	0.4264562104356903	0.46416739555462877	0.42758588762787125	0.6715271738127553	0.3123068648915991	0.36369320017271267	0.8516350502913629	0.23543064930038743	0.37919500406136014	0.9448021968710603	0.22223471445023654	0.4263983578414237	0.9701970917290952	0.23568184907188972	0.4393232258492591	0.9700399109435416	0.11929968896006898	0.46228115296021993	0.4165111354310857	0.07566806534877565	0.4265784407237694	0.6653493070010345	0.2117428798002396	0.30861653858185906	0.8206611320048799	0.31313390914136435	0.31673163585330827	0.8942379796264436	0.3135522209853497	0.3169499910836182	0.9058546101128596	0.23957901418931202	0.3477337561864182	0.9402920739942472
2	0.03389830508474576	0.34422859569249836	0.5716860716412255	0.9082481375251859	0.32589489699629576	0.6860025924355819	1.3290229047490323	0.3012569978968256	0.7930274426414425	1.7402191259822772	0.29268639897920856	0.6302721240150871	1.7757783797680582	0.3510972065308496	0.6275098061196127	1.757150564496125	0.2755389335810904	0.8842081748751646	1.8047442066180632	0.1341571552612633	0.5825551809470874	0.9170497854811004	0.11488282642499509	0.6697418709091479	1.3072880785511594	0.09915162475098349	0.7796162337700787	1.725772328646995	0.12044431908294914	0.5636573160140599	1.7307502124160452	0.06304246983728684	0.6186088148914035	1.730512621368134	0.12098961666589754	0.8332731071169455	1.7667567035409422	0.2771692810785873	0.49143990766381584	0.3172476202764586	0.31389108352984113	0.3994963240324186	0.07297862144774163	0.2821260770151251	0.3268837702355412	0.206021119708123	0.4223595481221632	0.4781332323966391	0.42646587043180223	0.4642496341875327	0.42788336609846556	0.6714106807749591	0.3124406703172329	0.34921078290092067	0.8463164134972176	0.23640969807560896	0.3813774273676651	0.9462883713769201	0.22125237045119578	0.42827458766182214	0.9750391171618102	0.24136880891256812	0.42680207124448183	0.9640895405825991	0.117211621022663	0.44972566368674954	0.41657542153690136	0.07569223062327897	0.4266505574148601	0.6651660523581723	0.2182710528281711	0.3215695488619572	0.8224843180705685	0.3141093057861437	0.3191297219133735	0.8984487900680681	0.31433254935151844	0.3213145503734902	0.910766626659641	0.2400166128934554	0.34923325234222835	0.9403148126924047
3	0.05084745762711865	0.34415612911020294	0.5717016873787365	0.9080970580969006	0.32581722441268923	0.6855945976334558	1.328999958654337	0.30113279869604415	0.7928126207273624	1.7401287431911385	0.2927015190166524	0.630521352535098	1.7759095426912215	0.35104197394422226	0.6275557950920633	1.7571309663683088	0.27146696158551153	0.8653412676455025	1.7932116948549572	0.13650146979060052	0.5941848385187013	0.9142001736031296	0.11755465251781011	0.6776691909656927	1.2965382563468173	0.09913441803610501	0.7796132163435928	1.7257586136943208	0.12043973704038322	0.5638352006968125	1.7308876211618442	0.06294875514869315	0.6190351558922489	1.7307805266053293	0.12097524627095237	0.8338391760014389	1.7670053398376584	0.2771762035816526	0.49149632554469963	0.317169152703176	0.3139587684667079	0.3994576533896223	0.07305437317840498	0.28214596463673636	0.32672654723958783	0.20608119976363562	0.4188787762092321	0.46736489799769715	0.4299749905417876	0.46415892637083006	0.4279301985667691	0.671413584617061	0.31246977282087357	0.3495474616782243	0.8461608231201951	0.25010563312887046	0.39435376742223166	0.9445416861580525	0.23234012566924728	0.42523584607025194	0.9652031131101664	0.24077894620354146	0.4248535878320376	0.9551874962585235	0.1194068613616991	0.46191045757819077	0.41639378807487154	0.07633187291145418	0.4261003298765004	0.6616237824969345	0.21198778135201046	0.3092467502292961	0.8210205438461669	0.31395593839708635	0.3195941630806825	0.8945470372929807	0.3144067535458696	0.3204392802714234	0.9103707285670597	0.23546913149672274	0.3450957512793921	0.9473332958768491
4	0.06779661016949153	0.3440499203930155	0.5716765553800167	0.9081571602969961	0.3182135727309618	0.6694224814271106	1.3245454001925754	0.29991319321331245	0.794149544818856	1.7449864726981996	0.2926778716335884	0.6306353205545822	1.7759376824861677	0.3510168998557617	0.6276790391237146	1.7571440182707072	0.275571772087422	0.8838389695832243	1.8048715511889832	0.13415379658504833	0.5822862568863556	0.9170763199311904	0.11464813900317845	0.6706519212094706	1.303547171869969	0.09891916844396278	0.78079478456773	1.72212593403116	0.1181402800899355	0.5473062618434913	1.7196364539730324	0.06318095186042694	0.6183499376609675	1.7302554557978662	0.12242545015592561	0.8323691405859979	1.761871323416339	0.2771955752910521	0.49160268515287747	0.3172021403106305	0.31405884773606807	0.39939050901339773	0.07314127700255803	0.2822353938784558	0.3265482553750919	0.20614031780594708	0.42205853140314736	0.47883940409667347	0.4299209115405255	0.4639961749427843	0.4280259877685332	0.6713689255430665	0.31703826432467874	0.35104279954782014	0.8464954141696245	0.24280419055067695	0.3813010286293717	0.9392155730745748	0.2269004921658488	0.43781546274876865	0.9673470087667435	0.2406935470156246	0.42463267351678685	0.955189022393802	0.11940390540185618	0.4623207485064243	0.4163313009859112	0.07812638962124964	0.4382266813905141	0.662515732251363	0.21200040825528751	0.3092609186926806	0.8209992019128455	0.3132629527261368	0.3174628895724541	0.8903313348483122	0.31399836778783785	0.31810437155801996	0.9024500810012012	0.2433649551130732	0.344329530962399	0.9397201688075167
